<svg width="49" height="49" viewBox="0 0 49 49" fill="none" xmlns="http://www.w3.org/2000/svg">
<g clip-path="url(#clip0_235_132)">
<path d="M30.5 16.5C27.1 16.5 24.5 19.1 24.5 22.5C24.5 25.9 27.1 28.5 30.5 28.5C33.9 28.5 36.5 25.9 36.5 22.5C36.5 19.1 33.9 16.5 30.5 16.5ZM30.5 26.5C28.3 26.5 26.5 24.7 26.5 22.5C26.5 20.3 28.3 18.5 30.5 18.5C32.7 18.5 34.5 20.3 34.5 22.5C34.5 24.7 32.7 26.5 30.5 26.5Z" fill="#084DF2"/>
<path d="M14.5 8.5H20.5V10.5H14.5V8.5Z" fill="#084DF2"/>
<path d="M6.5 8.5H10.5V10.5H6.5V8.5Z" fill="#084DF2"/>
<path d="M6.5 14.5H16.5V16.5H6.5V14.5Z" fill="#084DF2"/>
<path d="M6.5 20.5H14.5V22.5H6.5V20.5Z" fill="#084DF2"/>
<path d="M44.5 0.5H4.5C2.3 0.5 0.5 2.3 0.5 4.5V36.5C0.5 38.7 2.3 40.5 4.5 40.5H18.5V38.5H4.5C3.3 38.5 2.5 37.7 2.5 36.5V4.5C2.5 3.3 3.3 2.5 4.5 2.5H44.5C45.7 2.5 46.5 3.3 46.5 4.5V36.5C46.5 37.7 45.7 38.5 44.5 38.5H42.5V40.5H44.5C46.7 40.5 48.5 38.7 48.5 36.5V4.5C48.5 2.3 46.7 0.5 44.5 0.5Z" fill="#084DF2"/>
<path d="M30.5 10.5C23.9 10.5 18.5 15.9 18.5 22.5C18.5 26.1 20.1 29.3 22.5 31.5V48.5L30.5 44.5L38.5 48.5V31.5C40.9 29.3 42.5 26.1 42.5 22.5C42.5 15.9 37.1 10.5 30.5 10.5ZM36.5 45.3L30.5 42.3L24.5 45.3V40.5V32.9C26.3 33.9 28.3 34.5 30.5 34.5C32.7 34.5 34.7 33.9 36.5 32.9V45.3ZM30.5 32.5C24.9 32.5 20.5 28.1 20.5 22.5C20.5 16.9 24.9 12.5 30.5 12.5C36.1 12.5 40.5 16.9 40.5 22.5C40.5 28.1 36.1 32.5 30.5 32.5Z" fill="#084DF2"/>
</g>
<defs>
<clipPath id="clip0_235_132">
<rect width="48" height="48" fill="white" transform="translate(0.5 0.5)"/>
</clipPath>
</defs>
</svg>
