<svg width="35" height="42" viewBox="0 0 35 42" fill="none" xmlns="http://www.w3.org/2000/svg">
<path d="M19.5506 1H5.12235C4.02904 1 2.9805 1.42143 2.20741 2.17157C1.43432 2.92172 1 3.93913 1 5V37C1 38.0609 1.43432 39.0783 2.20741 39.8284C2.9805 40.5786 4.02904 41 5.12235 41H29.8565C30.9498 41 31.9983 40.5786 32.7714 39.8284C33.5445 39.0783 33.9788 38.0609 33.9788 37V15L19.5506 1Z" stroke="#084DF2" stroke-linecap="round" stroke-linejoin="round"/>
<path d="M19.5547 1V15H33.9829" stroke="#084DF2" stroke-linecap="round" stroke-linejoin="round"/>
<path d="M10.2581 25.636V31.816C10.2581 32.504 10.0461 33.056 9.62207 33.472C9.19807 33.88 8.63807 34.084 7.94207 34.084C7.23807 34.084 6.67407 33.876 6.25007 33.46C5.82607 33.036 5.61407 32.46 5.61407 31.732H6.70607C6.71407 32.14 6.81807 32.472 7.01807 32.728C7.22607 32.984 7.53407 33.112 7.94207 33.112C8.35007 33.112 8.65407 32.992 8.85407 32.752C9.05407 32.504 9.15407 32.192 9.15407 31.816V25.636H10.2581ZM18.0014 28.084C18.0014 28.78 17.7614 29.36 17.2814 29.824C16.8094 30.28 16.0854 30.508 15.1094 30.508H13.5014V34H12.4094V25.636H15.1094C16.0534 25.636 16.7694 25.864 17.2574 26.32C17.7534 26.776 18.0014 27.364 18.0014 28.084ZM15.1094 29.608C15.7174 29.608 16.1654 29.476 16.4534 29.212C16.7414 28.948 16.8854 28.572 16.8854 28.084C16.8854 27.052 16.2934 26.536 15.1094 26.536H13.5014V29.608H15.1094ZM25.6946 28.06C25.4626 27.572 25.1266 27.196 24.6866 26.932C24.2466 26.66 23.7346 26.524 23.1506 26.524C22.5666 26.524 22.0386 26.66 21.5666 26.932C21.1026 27.196 20.7346 27.58 20.4626 28.084C20.1986 28.58 20.0666 29.156 20.0666 29.812C20.0666 30.468 20.1986 31.044 20.4626 31.54C20.7346 32.036 21.1026 32.42 21.5666 32.692C22.0386 32.956 22.5666 33.088 23.1506 33.088C23.9666 33.088 24.6386 32.844 25.1666 32.356C25.6946 31.868 26.0026 31.208 26.0906 30.376H22.7546V29.488H27.2546V30.328C27.1906 31.016 26.9746 31.648 26.6066 32.224C26.2386 32.792 25.7546 33.244 25.1546 33.58C24.5546 33.908 23.8866 34.072 23.1506 34.072C22.3746 34.072 21.6666 33.892 21.0266 33.532C20.3866 33.164 19.8786 32.656 19.5026 32.008C19.1346 31.36 18.9506 30.628 18.9506 29.812C18.9506 28.996 19.1346 28.264 19.5026 27.616C19.8786 26.96 20.3866 26.452 21.0266 26.092C21.6666 25.724 22.3746 25.54 23.1506 25.54C24.0386 25.54 24.8226 25.76 25.5026 26.2C26.1906 26.64 26.6906 27.26 27.0026 28.06H25.6946Z" fill="#084DF2"/>
</svg>
