<svg width="97" height="89" viewBox="0 0 97 89" fill="none" xmlns="http://www.w3.org/2000/svg">
<path d="M92.1736 18.3891C92.2167 15.9896 91.7812 13.6057 90.8927 11.3764C90.0042 9.14708 88.6804 7.11717 86.9986 5.4052C85.3168 3.69323 83.3108 2.33351 81.0977 1.40545C78.8845 0.477398 76.5087 -0.00038661 74.1088 2.34722e-07H57.2757L60.1209 6.75375H74.1211C75.6247 6.75352 77.1132 7.05283 78.4998 7.63421C79.8864 8.2156 81.1432 9.0674 82.197 10.1399C83.2508 11.2124 84.0803 12.484 84.6372 13.8807C85.194 15.2773 85.4671 16.7708 85.4404 18.2741C85.3418 24.4326 80.1482 29.4086 73.8748 29.4086H62.3092L51.3185 3.33377C51.0173 2.61553 50.5105 2.00237 49.8618 1.57137C49.2132 1.14037 48.4515 0.910773 47.6727 0.91145C46.8936 0.909692 46.1315 1.13885 45.4826 1.56999C44.8337 2.00112 44.3272 2.61489 44.0269 3.33377L33.0361 29.4086H23.1252C18.3711 29.4229 13.8082 31.2819 10.3977 34.594C8.67885 36.2167 7.30053 38.1656 6.34324 40.3269C5.38596 42.4882 4.8689 44.8185 4.82227 47.1819C4.82227 47.4487 4.82227 47.7156 4.82227 47.9825C4.9906 54.3749 9.33845 59.4782 15.6693 60.6606C16.3391 60.7876 17.0167 60.8685 17.6975 60.9029H18.9703C21.4881 60.7912 23.9206 59.9577 25.9779 58.5018C28.0351 57.0459 29.6301 55.029 30.5728 52.6916L37.5523 36.1582H57.8588L68.246 60.9029H75.5499L65.1339 36.1788H73.8337C83.7981 36.1624 92.0094 28.1892 92.1736 18.3891ZM24.3281 50.0722C22.7885 53.7303 19.3685 54.4858 16.9051 54.0218C14.4418 53.5579 11.6622 51.6652 11.5678 47.8018C11.5678 47.6348 11.5678 47.4665 11.5678 47.2968C11.6663 41.2615 16.9626 36.1624 23.1334 36.1624H30.1991L24.3281 50.0722ZM40.3647 29.4086L47.6686 12.0705L54.9725 29.4086H40.3647Z" fill="url(#paint0_linear_235_197)"/>
<path style="mix-blend-mode:multiply" d="M33.0357 29.4082L30.1904 36.162L29.1846 29.4082H33.0357Z" fill="url(#paint1_linear_235_197)"/>
<path style="mix-blend-mode:multiply" d="M40.3647 29.4082L37.5195 36.162H42.0111L40.3647 29.4082Z" fill="url(#paint2_linear_235_197)"/>
<path style="mix-blend-mode:multiply" d="M62.305 29.409H54.9765L53.6504 26.2559L62.305 29.409Z" fill="url(#paint3_linear_235_197)"/>
<path style="mix-blend-mode:multiply" d="M57.8262 36.1621L66.5465 39.4712L65.1547 36.1621H57.8262Z" fill="url(#paint4_linear_235_197)"/>
<g style="mix-blend-mode:screen">
<path d="M51.3188 3.33346C51.0176 2.61522 50.5108 2.00206 49.8621 1.57106C49.2134 1.14006 48.4518 0.910466 47.673 0.911143C46.8939 0.909385 46.1318 1.13855 45.4829 1.56968C44.834 2.00082 44.3274 2.61458 44.0272 3.33346L35.5244 23.5085C38.1602 22.9228 40.8111 22.4301 43.477 22.0305L47.6689 12.0702L51.4666 21.1026C53.8451 20.8946 56.225 20.7441 58.6063 20.651L51.3188 3.33346Z" fill="url(#paint5_linear_235_197)"/>
<path d="M91.702 22.1581C91.9952 20.9225 92.1535 19.6588 92.1742 18.3891C92.2173 15.9896 91.7818 13.6057 90.8933 11.3764C90.0048 9.14708 88.681 7.11717 86.9992 5.4052C85.3174 3.69323 83.3114 2.33351 81.0983 1.40545C78.8851 0.477398 76.5093 -0.00038661 74.1094 2.34722e-07H57.2764L60.1216 6.75375H74.1218C75.6253 6.75352 77.1138 7.05283 78.5004 7.63421C79.887 8.2156 81.1439 9.0674 82.1976 10.1399C83.2514 11.2124 84.0809 12.484 84.6378 13.8807C85.1947 15.2773 85.4677 16.7708 85.441 18.2741C85.4238 19.3623 85.2439 20.4417 84.9072 21.4765C87.179 21.6791 89.444 21.9063 91.702 22.1581Z" fill="url(#paint6_linear_235_197)"/>
</g>
<path style="mix-blend-mode:screen" d="M74.0967 0C76.4748 0.126407 78.8104 0.682817 80.99 1.64225C84.2369 3.10536 87.0071 5.4517 88.9846 8.41355C90.9621 11.3754 92.0672 14.8335 92.1738 18.3932C92.2168 15.9938 91.7814 13.6098 90.8929 11.3805C90.0043 9.15119 88.6805 7.12128 86.9988 5.4093C85.317 3.69733 83.311 2.33761 81.0978 1.40956C78.8847 0.481501 76.5088 0.00371653 74.109 0.00410337L74.0967 0Z" fill="url(#paint7_linear_235_197)"/>
<path style="mix-blend-mode:screen" d="M51.3187 3.33345C51.0175 2.61522 50.5107 2.00205 49.862 1.57105C49.2133 1.14005 48.4517 0.910458 47.6729 0.911134C49.9145 1.1082 50.9122 2.55338 51.5486 4.55693C52.2588 6.37572 53.002 8.17809 53.7533 9.98046C55.2806 13.577 56.853 17.1489 58.6102 20.6551L51.3187 3.33345Z" fill="url(#paint8_linear_235_197)"/>
<path style="mix-blend-mode:screen" d="M73.8536 29.4089H62.3086C65.9708 29.61 69.633 29.6881 73.2994 29.7291C79.778 30.0576 85.6409 24.8681 85.4192 18.2744C85.3206 24.4164 80.127 29.4089 73.8536 29.4089Z" fill="url(#paint9_linear_235_197)"/>
<path style="mix-blend-mode:screen" d="M21.0721 29.868C23.0305 29.6463 25.0546 29.7572 27.0335 29.671C29.0124 29.5847 31.0364 29.5396 33.0359 29.4082H23.1249C18.3709 29.4225 13.8079 31.2815 10.3975 34.5936C11.1628 33.9544 11.9692 33.366 12.8116 32.8323C15.3049 31.2311 18.1296 30.2175 21.0721 29.868Z" fill="url(#paint10_linear_235_197)"/>
<path d="M7.17048 80.4584H3.40562L2.80209 82.2402H0.229915L3.87982 72.1527H6.72502L10.3749 82.2402H7.774L7.17048 80.4584ZM6.53821 78.5616L5.28805 74.8686L4.05225 78.5616H6.53821ZM11.069 77.1821C11.069 76.1858 11.2846 75.2997 11.7157 74.5237C12.1468 73.7382 12.7455 73.1298 13.5119 72.6988C14.2879 72.2581 15.1644 72.0378 16.1415 72.0378C17.339 72.0378 18.3641 72.3539 19.2167 72.9862C20.0693 73.6184 20.6393 74.4806 20.9267 75.5727H18.2251C18.024 75.1512 17.7366 74.8303 17.363 74.6099C16.9989 74.3896 16.5822 74.2794 16.1128 74.2794C15.356 74.2794 14.7429 74.5429 14.2735 75.0698C13.8041 75.5966 13.5694 76.3008 13.5694 77.1821C13.5694 78.0634 13.8041 78.7676 14.2735 79.2944C14.7429 79.8213 15.356 80.0848 16.1128 80.0848C16.5822 80.0848 16.9989 79.9746 17.363 79.7543C17.7366 79.5339 18.024 79.213 18.2251 78.7915H20.9267C20.6393 79.8836 20.0693 80.7458 19.2167 81.3781C18.3641 82.0007 17.339 82.3121 16.1415 82.3121C15.1644 82.3121 14.2879 82.0965 13.5119 81.6654C12.7455 81.2248 12.1468 80.6165 11.7157 79.8405C11.2846 79.0645 11.069 78.1784 11.069 77.1821ZM29.6881 72.1527V74.1214H27.0154V82.2402H24.5581V74.1214H21.8854V72.1527H29.6881ZM33.3786 72.1527V82.2402H30.9213V72.1527H33.3786ZM39.93 82.3408C38.9816 82.3408 38.1098 82.1205 37.3147 81.6798C36.5292 81.2391 35.9017 80.626 35.4323 79.8405C34.9725 79.0454 34.7425 78.1545 34.7425 77.1677C34.7425 76.181 34.9725 75.2949 35.4323 74.5093C35.9017 73.7238 36.5292 73.1107 37.3147 72.67C38.1098 72.2293 38.9816 72.009 39.93 72.009C40.8784 72.009 41.7454 72.2293 42.5309 72.67C43.326 73.1107 43.9487 73.7238 44.399 74.5093C44.8588 75.2949 45.0887 76.181 45.0887 77.1677C45.0887 78.1545 44.8588 79.0454 44.399 79.8405C43.9392 80.626 43.3165 81.2391 42.5309 81.6798C41.7454 82.1205 40.8784 82.3408 39.93 82.3408ZM39.93 80.0992C40.7347 80.0992 41.3766 79.8309 41.8555 79.2944C42.3441 78.758 42.5884 78.0491 42.5884 77.1677C42.5884 76.2768 42.3441 75.5679 41.8555 75.041C41.3766 74.5045 40.7347 74.2363 39.93 74.2363C39.1157 74.2363 38.4643 74.4998 37.9757 75.0266C37.4967 75.5535 37.2572 76.2672 37.2572 77.1677C37.2572 78.0587 37.4967 78.7723 37.9757 79.3088C38.4643 79.8357 39.1157 80.0992 39.93 80.0992ZM55.4799 82.2402H53.0227L48.913 76.0182V82.2402H46.4558V72.1527H48.913L53.0227 78.4035V72.1527H55.4799V82.2402ZM67.994 75.4003C67.994 75.9846 67.8599 76.5211 67.5917 77.0097C67.3234 77.4887 66.9115 77.8766 66.3559 78.1736C65.8002 78.4706 65.1105 78.6191 64.2866 78.6191H62.7634V82.2402H60.3062V72.1527H64.2866C65.0913 72.1527 65.7715 72.2916 66.3271 72.5694C66.8828 72.8472 67.2995 73.2304 67.5773 73.719C67.8551 74.2076 67.994 74.768 67.994 75.4003ZM64.0998 76.6648C64.5692 76.6648 64.9189 76.5546 65.1488 76.3343C65.3787 76.114 65.4937 75.8026 65.4937 75.4003C65.4937 74.9979 65.3787 74.6866 65.1488 74.4662C64.9189 74.2459 64.5692 74.1357 64.0998 74.1357H62.7634V76.6648H64.0998ZM71.7305 80.3434H74.9493V82.2402H69.2733V72.1527H71.7305V80.3434ZM82.4009 80.4584H78.636L78.0325 82.2402H75.4603L79.1102 72.1527H81.9554L85.6053 82.2402H83.0044L82.4009 80.4584ZM81.7686 78.5616L80.5184 74.8686L79.2826 78.5616H81.7686ZM95.7403 82.2402H93.2831L89.1734 76.0182V82.2402H86.7162V72.1527H89.1734L93.2831 78.4035V72.1527H95.7403V82.2402Z" fill="#090914"/>
<defs>
<linearGradient id="paint0_linear_235_197" x1="48.4897" y1="60.8947" x2="48.4897" y2="0" gradientUnits="userSpaceOnUse">
<stop stop-color="#171CC2"/>
<stop offset="0.44" stop-color="#1BB3FF"/>
<stop offset="1" stop-color="#C61BFF"/>
</linearGradient>
<linearGradient id="paint1_linear_235_197" x1="31.1101" y1="36.162" x2="31.1101" y2="29.4082" gradientUnits="userSpaceOnUse">
<stop stop-color="#171CC2"/>
<stop offset="0.06" stop-color="#3B3FCB"/>
<stop offset="0.14" stop-color="#696CD7"/>
<stop offset="0.23" stop-color="#9193E2"/>
<stop offset="0.33" stop-color="#B3B5EB"/>
<stop offset="0.43" stop-color="#CFD0F2"/>
<stop offset="0.53" stop-color="#E4E5F8"/>
<stop offset="0.65" stop-color="#F3F4FC"/>
<stop offset="0.79" stop-color="#FCFCFE"/>
<stop offset="1" stop-color="white"/>
</linearGradient>
<linearGradient id="paint2_linear_235_197" x1="39.7653" y1="36.162" x2="39.7653" y2="29.4082" gradientUnits="userSpaceOnUse">
<stop stop-color="white"/>
<stop offset="0.21" stop-color="#FCFCFE"/>
<stop offset="0.35" stop-color="#F3F4FC"/>
<stop offset="0.47" stop-color="#E4E5F8"/>
<stop offset="0.57" stop-color="#CFD0F2"/>
<stop offset="0.67" stop-color="#B3B5EB"/>
<stop offset="0.77" stop-color="#9193E2"/>
<stop offset="0.86" stop-color="#696CD7"/>
<stop offset="0.94" stop-color="#3B3FCB"/>
<stop offset="1" stop-color="#171CC2"/>
</linearGradient>
<linearGradient id="paint3_linear_235_197" x1="53.6504" y1="27.8324" x2="62.3092" y2="27.8324" gradientUnits="userSpaceOnUse">
<stop stop-color="white"/>
<stop offset="0.21" stop-color="#FCFCFE"/>
<stop offset="0.35" stop-color="#F3F4FC"/>
<stop offset="0.47" stop-color="#E4E5F8"/>
<stop offset="0.57" stop-color="#CFD0F2"/>
<stop offset="0.67" stop-color="#B3B5EB"/>
<stop offset="0.77" stop-color="#9193E2"/>
<stop offset="0.86" stop-color="#696CD7"/>
<stop offset="0.94" stop-color="#3B3FCB"/>
<stop offset="1" stop-color="#171CC2"/>
</linearGradient>
<linearGradient id="paint4_linear_235_197" x1="57.8262" y1="37.8167" x2="66.5465" y2="37.8167" gradientUnits="userSpaceOnUse">
<stop stop-color="#171CC2"/>
<stop offset="0.06" stop-color="#3B3FCB"/>
<stop offset="0.14" stop-color="#696CD7"/>
<stop offset="0.23" stop-color="#9193E2"/>
<stop offset="0.33" stop-color="#B3B5EB"/>
<stop offset="0.43" stop-color="#CFD0F2"/>
<stop offset="0.53" stop-color="#E4E5F8"/>
<stop offset="0.65" stop-color="#F3F4FC"/>
<stop offset="0.79" stop-color="#FCFCFE"/>
<stop offset="1" stop-color="white"/>
</linearGradient>
<linearGradient id="paint5_linear_235_197" x1="47.0694" y1="23.5085" x2="47.0694" y2="0.911144" gradientUnits="userSpaceOnUse">
<stop stop-color="#1BB3FF"/>
<stop offset="0.03" stop-color="#19A2E7"/>
<stop offset="0.08" stop-color="#1483BB"/>
<stop offset="0.14" stop-color="#106793"/>
<stop offset="0.21" stop-color="#0C4F70"/>
<stop offset="0.28" stop-color="#093A53"/>
<stop offset="0.36" stop-color="#06293C"/>
<stop offset="0.45" stop-color="#041D29"/>
<stop offset="0.55" stop-color="#03141D"/>
<stop offset="0.69" stop-color="#020E15"/>
<stop offset="1" stop-color="#020D13"/>
</linearGradient>
<linearGradient id="paint6_linear_235_197" x1="74.7171" y1="22.1581" x2="74.7171" y2="0" gradientUnits="userSpaceOnUse">
<stop stop-color="#1BB3FF"/>
<stop offset="0.03" stop-color="#19A2E7"/>
<stop offset="0.08" stop-color="#1483BB"/>
<stop offset="0.14" stop-color="#106793"/>
<stop offset="0.21" stop-color="#0C4F70"/>
<stop offset="0.28" stop-color="#093A53"/>
<stop offset="0.36" stop-color="#06293C"/>
<stop offset="0.45" stop-color="#041D29"/>
<stop offset="0.55" stop-color="#03141D"/>
<stop offset="0.69" stop-color="#020E15"/>
<stop offset="1" stop-color="#020D13"/>
</linearGradient>
<linearGradient id="paint7_linear_235_197" x1="83.1373" y1="18.3891" x2="83.1373" y2="0" gradientUnits="userSpaceOnUse">
<stop stop-color="#020D13"/>
<stop offset="0.53" stop-color="#1BB3FF"/>
<stop offset="0.54" stop-color="#19A2E7"/>
<stop offset="0.57" stop-color="#1483BB"/>
<stop offset="0.6" stop-color="#106793"/>
<stop offset="0.63" stop-color="#0C4F70"/>
<stop offset="0.66" stop-color="#093A53"/>
<stop offset="0.7" stop-color="#06293C"/>
<stop offset="0.74" stop-color="#041D29"/>
<stop offset="0.79" stop-color="#03141D"/>
<stop offset="0.86" stop-color="#020E15"/>
<stop offset="1" stop-color="#020D13"/>
</linearGradient>
<linearGradient id="paint8_linear_235_197" x1="53.1415" y1="20.6387" x2="53.1415" y2="0.911135" gradientUnits="userSpaceOnUse">
<stop stop-color="#020D13"/>
<stop offset="0.53" stop-color="#1BB3FF"/>
<stop offset="0.54" stop-color="#19A2E7"/>
<stop offset="0.57" stop-color="#1483BB"/>
<stop offset="0.6" stop-color="#106793"/>
<stop offset="0.63" stop-color="#0C4F70"/>
<stop offset="0.66" stop-color="#093A53"/>
<stop offset="0.7" stop-color="#06293C"/>
<stop offset="0.74" stop-color="#041D29"/>
<stop offset="0.79" stop-color="#03141D"/>
<stop offset="0.86" stop-color="#020E15"/>
<stop offset="1" stop-color="#020D13"/>
</linearGradient>
<linearGradient id="paint9_linear_235_197" x1="73.8659" y1="29.7455" x2="73.8659" y2="18.2744" gradientUnits="userSpaceOnUse">
<stop stop-color="#020D13"/>
<stop offset="0.53" stop-color="#1BB3FF"/>
<stop offset="0.54" stop-color="#19A2E7"/>
<stop offset="0.57" stop-color="#1483BB"/>
<stop offset="0.6" stop-color="#106793"/>
<stop offset="0.63" stop-color="#0C4F70"/>
<stop offset="0.66" stop-color="#093A53"/>
<stop offset="0.7" stop-color="#06293C"/>
<stop offset="0.74" stop-color="#041D29"/>
<stop offset="0.79" stop-color="#03141D"/>
<stop offset="0.86" stop-color="#020E15"/>
<stop offset="1" stop-color="#020D13"/>
</linearGradient>
<linearGradient id="paint10_linear_235_197" x1="21.7085" y1="34.5936" x2="21.7085" y2="29.4082" gradientUnits="userSpaceOnUse">
<stop stop-color="#020D13"/>
<stop offset="0.53" stop-color="#1BB3FF"/>
<stop offset="0.54" stop-color="#19A2E7"/>
<stop offset="0.57" stop-color="#1483BB"/>
<stop offset="0.6" stop-color="#106793"/>
<stop offset="0.63" stop-color="#0C4F70"/>
<stop offset="0.66" stop-color="#093A53"/>
<stop offset="0.7" stop-color="#06293C"/>
<stop offset="0.74" stop-color="#041D29"/>
<stop offset="0.79" stop-color="#03141D"/>
<stop offset="0.86" stop-color="#020E15"/>
<stop offset="1" stop-color="#020D13"/>
</linearGradient>
</defs>
</svg>
