<svg width="18" height="17" viewBox="0 0 18 17" fill="none" xmlns="http://www.w3.org/2000/svg">
<path d="M4.875 3.08734C5.82512 2.53879 6.9029 2.25 8 2.25C9.0971 2.25 10.1749 2.53879 11.125 3.08734C11.4837 3.29445 11.9424 3.17154 12.1495 2.81282C12.3566 2.4541 12.2337 1.99541 11.875 1.7883C10.6968 1.1081 9.36041 0.75 8 0.75C6.63959 0.75 5.30315 1.1081 4.125 1.7883C2.94685 2.46851 1.96851 3.44685 1.2883 4.625C0.608098 5.80315 0.25 7.13959 0.25 8.5C0.25 9.86041 0.608099 11.1969 1.2883 12.375C1.96851 13.5531 2.94685 14.5315 4.125 15.2117C5.30315 15.8919 6.63959 16.25 8 16.25C9.36041 16.25 10.6969 15.8919 11.875 15.2117C12.2337 15.0046 12.3566 14.5459 12.1495 14.1872C11.9424 13.8285 11.4837 13.7056 11.125 13.9127C10.1749 14.4612 9.0971 14.75 8 14.75C6.9029 14.75 5.82512 14.4612 4.875 13.9127C3.92488 13.3641 3.13589 12.5751 2.58734 11.625C2.03879 10.6749 1.75 9.5971 1.75 8.5C1.75 7.4029 2.03879 6.32512 2.58734 5.375C3.13589 4.42488 3.92488 3.63589 4.875 3.08734Z" fill="#52525B"/>
<path d="M14.5303 4.96967C14.2374 4.67678 13.7626 4.67678 13.4697 4.96967C13.1768 5.26256 13.1768 5.73744 13.4697 6.03033L15.1893 7.75H7C6.58579 7.75 6.25 8.08579 6.25 8.5C6.25 8.91421 6.58579 9.25 7 9.25H15.1893L13.4697 10.9697C13.1768 11.2626 13.1768 11.7374 13.4697 12.0303C13.7626 12.3232 14.2374 12.3232 14.5303 12.0303L17.5303 9.03033C17.8232 8.73744 17.8232 8.26256 17.5303 7.96967L14.5303 4.96967Z" fill="#52525B"/>
</svg>
