<svg width="118" height="106" viewBox="0 0 118 106" fill="none" xmlns="http://www.w3.org/2000/svg">
<path d="M60.4347 0.22819L56.5948 1.21793L9.28678 13.4118L5.44691 14.4016C3.58308 14.8842 1.9869 16.0861 1.00856 17.7436C0.0302206 19.4011 -0.250385 21.3787 0.228305 23.2427L16.8788 87.7785C17.3617 89.6414 18.5642 91.2368 20.2225 92.2147C21.8808 93.1925 23.8594 93.473 25.7243 92.9946L25.7342 92.992L80.7021 78.8237L80.712 78.8212C82.5759 78.3385 84.1721 77.1366 85.1504 75.4792C86.1287 73.8217 86.4093 71.844 85.9307 69.98L69.2801 5.44429C68.7972 3.58137 67.5948 1.98596 65.9365 1.00808C64.2782 0.0302114 62.2996 -0.250264 60.4347 0.22819Z" fill="#F2F2F2"/>
<path d="M60.9565 2.25135L56.4085 3.42364L10.5167 15.2525L5.96873 16.4247C4.64145 16.7684 3.50477 17.6243 2.80807 18.8047C2.11137 19.985 1.91154 21.3933 2.25242 22.7207L18.903 87.2565C19.2468 88.5831 20.1031 89.7192 21.284 90.4156C22.4649 91.1119 23.874 91.3117 25.202 90.9709L25.2119 90.9684L80.1798 76.8001L80.1898 76.7976C81.5171 76.4539 82.6537 75.5979 83.3504 74.4176C84.0471 73.2373 84.2469 71.829 83.9061 70.5016L67.2555 5.96587C66.9117 4.63924 66.0554 3.50312 64.8745 2.80676C63.6936 2.11039 62.2846 1.91065 60.9565 2.25135Z" fill="white"/>
<path d="M57.5223 23.1494L29.7154 30.3168C29.4048 30.3969 29.0752 30.3503 28.7989 30.1874C28.5227 30.0245 28.3225 29.7586 28.2424 29.4482C28.1623 29.1378 28.2089 28.8083 28.3719 28.5322C28.5348 28.2561 28.8009 28.056 29.1115 27.9759L56.9184 20.8085C57.2288 20.7288 57.5583 20.7755 57.8343 20.9385C58.1103 21.1014 58.3103 21.3672 58.3903 21.6774C58.4704 21.9877 58.4239 22.317 58.2612 22.593C58.0984 22.869 57.8327 23.0692 57.5223 23.1494Z" fill="#F2F2F2"/>
<path d="M63.3724 25.8548L30.735 34.2673C30.4244 34.3473 30.0947 34.3008 29.8185 34.1379C29.5422 33.975 29.342 33.7091 29.2619 33.3986C29.1819 33.0882 29.2284 32.7587 29.3914 32.4826C29.5544 32.2065 29.8204 32.0064 30.131 31.9263L62.7684 23.5139C63.079 23.4338 63.4086 23.4804 63.6849 23.6433C63.9611 23.8062 64.1613 24.0721 64.2414 24.3825C64.3215 24.6929 64.2749 25.0224 64.112 25.2985C63.949 25.5747 63.6829 25.7747 63.3724 25.8548Z" fill="#F2F2F2"/>
<path d="M62.0897 40.8528L34.2828 48.0202C34.129 48.0599 33.9689 48.0688 33.8117 48.0466C33.6544 48.0244 33.5031 47.9715 33.3663 47.8908C33.2295 47.8102 33.11 47.7034 33.0145 47.5765C32.919 47.4497 32.8495 47.3053 32.8098 47.1516C32.7701 46.9979 32.7612 46.8379 32.7834 46.6807C32.8056 46.5235 32.8585 46.3723 32.9392 46.2356C33.0199 46.0988 33.1268 45.9793 33.2537 45.8839C33.3806 45.7885 33.5251 45.7189 33.6788 45.6793L61.4858 38.5119C61.6395 38.4723 61.7996 38.4633 61.9569 38.4855C62.1141 38.5077 62.2655 38.5607 62.4023 38.6413C62.539 38.722 62.6586 38.8288 62.7541 38.9556C62.8496 39.0824 62.9191 39.2268 62.9588 39.3805C62.9984 39.5343 63.0074 39.6943 62.9852 39.8514C62.963 40.0086 62.91 40.1599 62.8293 40.2966C62.7486 40.4333 62.6418 40.5528 62.5149 40.6482C62.388 40.7437 62.2435 40.8132 62.0897 40.8528Z" fill="#F2F2F2"/>
<path d="M67.9397 43.5579L35.3023 51.9704C35.1486 52.01 34.9885 52.019 34.8312 51.9968C34.674 51.9746 34.5226 51.9216 34.3858 51.841C34.2491 51.7603 34.1295 51.6535 34.034 51.5267C33.9385 51.3999 33.869 51.2555 33.8293 51.1018C33.7897 50.9481 33.7807 50.788 33.8029 50.6309C33.8251 50.4737 33.8781 50.3224 33.9588 50.1857C34.0395 50.049 34.1463 49.9295 34.2732 49.8341C34.4001 49.7386 34.5446 49.6691 34.6984 49.6295L67.3358 41.217C67.6463 41.137 67.976 41.1835 68.2523 41.3464C68.5285 41.5093 68.7287 41.7752 68.8088 42.0856C68.8889 42.3961 68.8423 42.7256 68.6793 43.0017C68.5163 43.2778 68.2503 43.4779 67.9397 43.5579Z" fill="#F2F2F2"/>
<path d="M66.6573 58.556L38.8504 65.7233C38.5399 65.8031 38.2104 65.7565 37.9343 65.5935C37.6583 65.4306 37.4582 65.1648 37.3782 64.8545C37.2981 64.5442 37.3446 64.2149 37.5074 63.9388C37.6702 63.6628 37.936 63.4627 38.2464 63.3824L66.0533 56.2151C66.3639 56.135 66.6936 56.1815 66.9698 56.3444C67.246 56.5073 67.4462 56.7732 67.5263 57.0837C67.6064 57.3941 67.5598 57.7236 67.3969 57.9997C67.2339 58.2758 66.9679 58.4759 66.6573 58.556Z" fill="#F2F2F2"/>
<path d="M72.5072 61.261L39.8698 69.6735C39.7159 69.7133 39.5558 69.7224 39.3984 69.7003C39.2411 69.6782 39.0896 69.6253 38.9527 69.5447C38.8158 69.464 38.6962 69.3572 38.6006 69.2303C38.505 69.1034 38.4354 68.9589 38.3957 68.8051C38.3561 68.6514 38.3471 68.4913 38.3693 68.334C38.3916 68.1767 38.4447 68.0254 38.5255 67.8886C38.6063 67.7519 38.7132 67.6324 38.8403 67.537C38.9673 67.4416 39.1119 67.3721 39.2658 67.3326L71.9032 58.9201C72.2138 58.8401 72.5435 58.8866 72.8197 59.0495C73.096 59.2124 73.2961 59.4783 73.3762 59.7888C73.4563 60.0992 73.4098 60.4287 73.2468 60.7048C73.0838 60.9809 72.8178 61.181 72.5072 61.261Z" fill="#F2F2F2"/>
<path d="M24.9686 37.6665L15.128 40.2029C14.9791 40.2411 14.8211 40.2188 14.6887 40.1407C14.5562 40.0626 14.4602 39.9352 14.4217 39.7864L12.1628 31.0312C12.1245 30.8823 12.1469 30.7244 12.2251 30.5921C12.3032 30.4597 12.4306 30.3637 12.5795 30.3252L22.4201 27.7887C22.569 27.7505 22.727 27.7729 22.8594 27.851C22.9918 27.9291 23.0878 28.0565 23.1264 28.2052L25.3853 36.9605C25.4235 37.1093 25.4011 37.2673 25.323 37.3996C25.2449 37.532 25.1174 37.6279 24.9686 37.6665Z" fill="#E6E6E6"/>
<path d="M29.536 55.3696L19.6954 57.9061C19.5464 57.9443 19.3884 57.9219 19.256 57.8438C19.1236 57.7657 19.0276 57.6383 18.989 57.4895L16.7301 48.7343C16.6919 48.5854 16.7143 48.4275 16.7924 48.2952C16.8706 48.1628 16.998 48.0669 17.1468 48.0283L26.9875 45.4919C27.1364 45.4536 27.2944 45.476 27.4268 45.5541C27.5592 45.6322 27.6552 45.7596 27.6938 45.9084L29.9527 54.6636C29.9909 54.8125 29.9685 54.9704 29.8904 55.1027C29.8122 55.2351 29.6848 55.331 29.536 55.3696Z" fill="#E6E6E6"/>
<path d="M34.1033 73.0727L24.2627 75.6092C24.1138 75.6474 23.9558 75.625 23.8234 75.5469C23.691 75.4688 23.595 75.3414 23.5564 75.1927L21.2975 66.4374C21.2593 66.2886 21.2817 66.1307 21.3598 65.9983C21.4379 65.866 21.5654 65.77 21.7142 65.7315L31.5548 63.195C31.7038 63.1568 31.8618 63.1792 31.9942 63.2573C32.1266 63.3353 32.2226 63.4627 32.2612 63.6115L34.5201 72.3668C34.5583 72.5156 34.5359 72.6735 34.4578 72.8059C34.3796 72.9382 34.2522 73.0342 34.1033 73.0727Z" fill="#E6E6E6"/>
<path d="M98.7861 16.5869H41.9994C40.074 16.5891 38.2281 17.3545 36.8667 18.7153C35.5053 20.0761 34.7395 21.9211 34.7373 23.8455V90.4926C34.7395 92.417 35.5053 94.262 36.8667 95.6228C38.2281 96.9835 40.074 97.749 41.9994 97.7512H98.7861C100.711 97.749 102.557 96.9835 103.919 95.6228C105.28 94.262 106.046 92.417 106.048 90.4926V23.8455C106.046 21.9211 105.28 20.0761 103.919 18.7153C102.557 17.3545 100.711 16.5891 98.7861 16.5869Z" fill="#E6E6E6"/>
<path d="M98.7855 18.6768H41.9987C40.6276 18.6783 39.3131 19.2234 38.3436 20.1924C37.374 21.1615 36.8287 22.4753 36.8271 23.8458V90.4928C36.8287 91.8633 37.374 93.1771 38.3436 94.1462C39.3131 95.1152 40.6276 95.6603 41.9987 95.6618H98.7855C100.157 95.6603 101.471 95.1152 102.441 94.1461C103.41 93.1771 103.955 91.8632 103.957 90.4928V23.8458C103.955 22.4753 103.41 21.1615 102.441 20.1924C101.471 19.2234 100.157 18.6783 98.7855 18.6768Z" fill="white"/>
<path d="M104.752 105.86C112.073 105.86 118.008 99.9275 118.008 92.6096C118.008 85.2917 112.073 79.3594 104.752 79.3594C97.4303 79.3594 91.4951 85.2917 91.4951 92.6096C91.4951 99.9275 97.4303 105.86 104.752 105.86Z" fill="#084DF2"/>
<path d="M111.092 90.882H106.481V86.2732C106.481 85.8148 106.299 85.3752 105.975 85.0511C105.65 84.727 105.211 84.5449 104.752 84.5449C104.293 84.5449 103.854 84.727 103.529 85.0511C103.205 85.3752 103.023 85.8148 103.023 86.2732V90.882H98.4117C97.9532 90.882 97.5133 91.0641 97.1891 91.3882C96.8648 91.7123 96.6826 92.1519 96.6826 92.6103C96.6826 93.0687 96.8648 93.5083 97.1891 93.8324C97.5133 94.1565 97.9532 94.3386 98.4117 94.3386H103.023V98.9474C103.023 99.4057 103.205 99.8454 103.529 100.169C103.854 100.494 104.293 100.676 104.752 100.676C105.211 100.676 105.65 100.494 105.975 100.169C106.299 99.8454 106.481 99.4057 106.481 98.9474V94.3386H111.092C111.551 94.3386 111.99 94.1565 112.315 93.8324C112.639 93.5083 112.821 93.0687 112.821 92.6103C112.821 92.1519 112.639 91.7123 112.315 91.3882C111.99 91.0641 111.551 90.882 111.092 90.882Z" fill="white"/>
<path d="M90.2389 55.2993H61.5222C61.3633 55.2995 61.2059 55.2684 61.059 55.2077C60.9121 55.147 60.7787 55.058 60.6662 54.9458C60.5538 54.8335 60.4646 54.7002 60.4037 54.5535C60.3428 54.4067 60.3115 54.2494 60.3115 54.0906C60.3115 53.9317 60.3428 53.7744 60.4037 53.6277C60.4646 53.481 60.5538 53.3477 60.6662 53.2354C60.7787 53.1231 60.9121 53.0341 61.059 52.9735C61.2059 52.9128 61.3633 52.8817 61.5222 52.8818H90.2389C90.5594 52.8822 90.8666 53.0097 91.0931 53.2363C91.3196 53.463 91.4469 53.7702 91.4469 54.0906C91.4469 54.4109 91.3196 54.7182 91.0931 54.9448C90.8666 55.1715 90.5594 55.299 90.2389 55.2993Z" fill="#E6E6E6"/>
<path d="M95.2274 59.3784H61.5222C61.3633 59.3786 61.2059 59.3475 61.059 59.2868C60.9121 59.2261 60.7787 59.1371 60.6662 59.0249C60.5538 58.9126 60.4646 58.7793 60.4037 58.6326C60.3428 58.4858 60.3115 58.3285 60.3115 58.1697C60.3115 58.0108 60.3428 57.8535 60.4037 57.7068C60.4646 57.5601 60.5538 57.4268 60.6662 57.3145C60.7787 57.2022 60.9121 57.1132 61.059 57.0526C61.2059 56.9919 61.3633 56.9608 61.5222 56.9609H95.2274C95.5481 56.9609 95.8557 57.0883 96.0825 57.315C96.3093 57.5417 96.4367 57.8491 96.4367 58.1697C96.4367 58.4903 96.3093 58.7977 96.0825 59.0244C95.8557 59.2511 95.5481 59.3784 95.2274 59.3784Z" fill="#E6E6E6"/>
<path d="M90.2389 73.5816H61.5222C61.3633 73.5817 61.2059 73.5506 61.059 73.4899C60.9121 73.4293 60.7787 73.3403 60.6662 73.228C60.5538 73.1157 60.4646 72.9824 60.4037 72.8357C60.3428 72.689 60.3115 72.5317 60.3115 72.3728C60.3115 72.214 60.3428 72.0567 60.4037 71.9099C60.4646 71.7632 60.5538 71.6299 60.6662 71.5176C60.7787 71.4054 60.9121 71.3164 61.059 71.2557C61.2059 71.195 61.3633 71.1639 61.5222 71.1641H90.2389C90.5596 71.1641 90.8672 71.2914 91.094 71.5181C91.3208 71.7448 91.4482 72.0522 91.4482 72.3728C91.4482 72.6934 91.3208 73.0008 91.094 73.2275C90.8672 73.4542 90.5596 73.5816 90.2389 73.5816Z" fill="#E6E6E6"/>
<path d="M95.2274 77.6607H61.5222C61.3633 77.6608 61.2059 77.6297 61.059 77.569C60.9121 77.5084 60.7787 77.4194 60.6662 77.3071C60.5538 77.1949 60.4646 77.0615 60.4037 76.9148C60.3428 76.7681 60.3115 76.6108 60.3115 76.4519C60.3115 76.2931 60.3428 76.1358 60.4037 75.989C60.4646 75.8423 60.5538 75.709 60.6662 75.5967C60.7787 75.4845 60.9121 75.3955 61.059 75.3348C61.2059 75.2741 61.3633 75.243 61.5222 75.2432H95.2274C95.3863 75.243 95.5437 75.2741 95.6906 75.3348C95.8375 75.3955 95.9709 75.4845 96.0834 75.5967C96.1958 75.709 96.285 75.8423 96.3459 75.989C96.4067 76.1358 96.4381 76.2931 96.4381 76.4519C96.4381 76.6108 96.4067 76.7681 96.3459 76.9148C96.285 77.0615 96.1958 77.1949 96.0834 77.3071C95.9709 77.4194 95.8375 77.5084 95.6906 77.569C95.5437 77.6297 95.3863 77.6608 95.2274 77.6607Z" fill="#E6E6E6"/>
<path d="M55.0901 61.2302H44.9275C44.7738 61.23 44.6264 61.1689 44.5177 61.0602C44.409 60.9516 44.3478 60.8043 44.3477 60.6506V51.6089C44.3478 51.4552 44.409 51.3079 44.5177 51.1992C44.6264 51.0906 44.7738 51.0295 44.9275 51.0293H55.0901C55.2438 51.0295 55.3912 51.0906 55.4999 51.1992C55.6086 51.3079 55.6698 51.4552 55.67 51.6089V60.6506C55.6698 60.8043 55.6086 60.9516 55.4999 61.0602C55.3912 61.1689 55.2438 61.23 55.0901 61.2302Z" fill="#E6E6E6"/>
<path d="M55.0901 79.5124H44.9275C44.7738 79.5122 44.6264 79.4511 44.5177 79.3425C44.409 79.2338 44.3478 79.0865 44.3477 78.9328V69.8911C44.3478 69.7375 44.409 69.5901 44.5177 69.4815C44.6264 69.3728 44.7738 69.3117 44.9275 69.3115H55.0901C55.2438 69.3117 55.3912 69.3728 55.4999 69.4815C55.6086 69.5901 55.6698 69.7375 55.67 69.8911V78.9328C55.6698 79.0865 55.6086 79.2338 55.4999 79.3425C55.3912 79.4511 55.2438 79.5122 55.0901 79.5124Z" fill="#E6E6E6"/>
<path d="M90.2716 34.9478H69.1C68.7792 34.9478 68.4716 34.8204 68.2448 34.5937C68.018 34.3671 67.8906 34.0596 67.8906 33.739C67.8906 33.4184 68.018 33.111 68.2448 32.8843C68.4716 32.6576 68.7792 32.5303 69.1 32.5303H90.2716C90.5923 32.5303 90.8999 32.6576 91.1267 32.8843C91.3535 33.111 91.4809 33.4184 91.4809 33.739C91.4809 34.0596 91.3535 34.3671 91.1267 34.5937C90.8999 34.8204 90.5923 34.9478 90.2716 34.9478Z" fill="#CCCCCC"/>
<path d="M95.2601 39.0269H69.1C68.9411 39.0269 68.7839 38.9956 68.6372 38.9349C68.4904 38.8741 68.3571 38.7851 68.2448 38.6728C68.1325 38.5606 68.0435 38.4273 67.9827 38.2807C67.9219 38.134 67.8906 37.9769 67.8906 37.8181C67.8906 37.6594 67.9219 37.5022 67.9827 37.3556C68.0435 37.2089 68.1325 37.0756 68.2448 36.9634C68.3571 36.8512 68.4904 36.7621 68.6372 36.7014C68.7839 36.6406 68.9411 36.6094 69.1 36.6094H95.2601C95.5808 36.6094 95.8884 36.7367 96.1152 36.9634C96.342 37.1901 96.4694 37.4975 96.4694 37.8181C96.4694 38.1387 96.342 38.4462 96.1152 38.6728C95.8884 38.8995 95.5808 39.0269 95.2601 39.0269Z" fill="#CCCCCC"/>
<path d="M64.4137 43.9708H44.8953C44.7416 43.9706 44.5942 43.9095 44.4855 43.8008C44.3767 43.6922 44.3156 43.5448 44.3154 43.3912V28.1655C44.3156 28.0119 44.3767 27.8645 44.4855 27.7559C44.5942 27.6472 44.7416 27.5861 44.8953 27.5859H64.4137C64.5674 27.5861 64.7148 27.6472 64.8236 27.7559C64.9323 27.8645 64.9934 28.0119 64.9936 28.1655V43.3912C64.9934 43.5448 64.9323 43.6922 64.8236 43.8008C64.7148 43.9095 64.5674 43.9706 64.4137 43.9708Z" fill="#084DF2"/>
</svg>
