<svg width="18" height="19" viewBox="0 0 18 19" fill="none" xmlns="http://www.w3.org/2000/svg">
<path fill-rule="evenodd" clip-rule="evenodd" d="M5.35039 5.00039C5.35039 3.35205 6.88767 1.85039 9.00039 1.85039C11.1131 1.85039 12.6504 3.35205 12.6504 5.00039C12.6504 6.64874 11.1131 8.15039 9.00039 8.15039C6.88767 8.15039 5.35039 6.64874 5.35039 5.00039ZM9.00039 0.150391C6.14255 0.150391 3.65039 2.23046 3.65039 5.00039C3.65039 7.77032 6.14255 9.85039 9.00039 9.85039C11.8582 9.85039 14.3504 7.77032 14.3504 5.00039C14.3504 2.23046 11.8582 0.150391 9.00039 0.150391ZM2.35039 15.5004C2.35039 14.9303 2.83901 14.2632 4.1759 13.6964C5.45019 13.1562 7.20583 12.8504 9.00039 12.8504C10.7757 12.8504 12.5301 13.2077 13.8114 13.7771C14.453 14.0623 14.9359 14.3829 15.2464 14.7023C15.5532 15.0179 15.6504 15.2853 15.6504 15.5004C15.6504 15.5498 15.6335 15.6785 15.3879 15.8825C15.1349 16.0928 14.7117 16.3157 14.0956 16.5153C12.8707 16.912 11.0923 17.1504 9.00039 17.1504C6.90849 17.1504 5.13003 16.912 3.90518 16.5153C3.28912 16.3157 2.86589 16.0928 2.61285 15.8825C2.36731 15.6785 2.35039 15.5498 2.35039 15.5004ZM9.00039 11.1504C7.04495 11.1504 5.05059 11.4792 3.51238 12.1313C2.03677 12.7568 0.650391 13.8397 0.650391 15.5004C0.650391 16.2157 1.03526 16.7819 1.52633 17.19C2.00989 17.5918 2.65809 17.8983 3.38131 18.1326C4.83503 18.6034 6.80658 18.8504 9.00039 18.8504C11.1942 18.8504 13.1657 18.6034 14.6195 18.1326C15.3427 17.8983 15.9909 17.5918 16.4745 17.19C16.9655 16.7819 17.3504 16.2157 17.3504 15.5004C17.3504 14.7155 16.9788 14.0454 16.4653 13.5172C15.9555 12.9929 15.2665 12.5635 14.5019 12.2237C12.9706 11.5431 10.9751 11.1504 9.00039 11.1504Z" fill="#52525B"/>
</svg>
