<svg width="22" height="22" viewBox="0 0 22 22" fill="none" xmlns="http://www.w3.org/2000/svg">
<path d="M21.4098 20.8294L16.0056 15.4252C17.5202 13.759 18.3231 11.5666 18.2428 9.31627C18.1624 7.06599 17.2051 4.93639 15.5754 3.38253C13.9458 1.82868 11.773 0.973813 9.52149 1.00061C7.26994 1.02741 5.11815 1.93375 3.52595 3.52595C1.93375 5.11815 1.02741 7.26994 1.00061 9.52149C0.973813 11.773 1.82868 13.9458 3.38253 15.5754C4.93639 17.2051 7.06599 18.1624 9.31627 18.2428C11.5666 18.3231 13.759 17.5202 15.4252 16.0056L20.8294 21.4098C20.9063 21.4868 21.0107 21.53 21.1196 21.53C21.2284 21.53 21.3328 21.4868 21.4098 21.4098C21.4868 21.3328 21.53 21.2284 21.53 21.1196C21.53 21.0107 21.4868 20.9063 21.4098 20.8294ZM1.84091 9.63442C1.84091 8.09301 2.29799 6.58621 3.15435 5.30458C4.01071 4.02294 5.22789 3.02403 6.65197 2.43416C8.07605 1.84428 9.64306 1.68995 11.1549 1.99066C12.6666 2.29137 14.0553 3.03363 15.1453 4.12358C16.2352 5.21352 16.9775 6.60219 17.2782 8.11398C17.5789 9.62577 17.4246 11.1928 16.8347 12.6169C16.2448 14.0409 15.2459 15.2581 13.9643 16.1145C12.6826 16.9708 11.1758 17.4279 9.63442 17.4279C7.56812 17.4258 5.58707 16.604 4.12597 15.1429C2.66488 13.6818 1.84308 11.7007 1.84091 9.63442Z" fill="#52525B" stroke="#52525B" stroke-width="0.8"/>
</svg>
