<svg width="18" height="21" viewBox="0 0 18 21" fill="none" xmlns="http://www.w3.org/2000/svg">
<path d="M4.25 9.5C4.25 9.08579 4.58579 8.75 5 8.75H13C13.4142 8.75 13.75 9.08579 13.75 9.5C13.75 9.91421 13.4142 10.25 13 10.25H5C4.58579 10.25 4.25 9.91421 4.25 9.5Z" fill="#52525B"/>
<path d="M5 11.75C4.58579 11.75 4.25 12.0858 4.25 12.5C4.25 12.9142 4.58579 13.25 5 13.25H13C13.4142 13.25 13.75 12.9142 13.75 12.5C13.75 12.0858 13.4142 11.75 13 11.75H5Z" fill="#52525B"/>
<path fill-rule="evenodd" clip-rule="evenodd" d="M4 0.75C1.92893 0.75 0.25 2.42893 0.25 4.5V16.5C0.25 18.5711 1.92893 20.25 4 20.25H14C16.0711 20.25 17.75 18.5711 17.75 16.5V4.5C17.75 2.42893 16.0711 0.75 14 0.75H4ZM12.2677 2.25H4C2.75736 2.25 1.75 3.25736 1.75 4.5V16.5C1.75 17.7426 2.75736 18.75 4 18.75H14C15.2426 18.75 16.25 17.7426 16.25 16.5V7.23228C16.1683 7.24396 16.0849 7.25 16 7.25H14C13.0335 7.25 12.25 6.4665 12.25 5.5V2.5C12.25 2.41512 12.256 2.33165 12.2677 2.25ZM16.25 5.5V4.5C16.25 3.25736 15.2426 2.25 14 2.25C13.8619 2.25 13.75 2.36193 13.75 2.5V5.5C13.75 5.63807 13.8619 5.75 14 5.75H16C16.1381 5.75 16.25 5.63807 16.25 5.5Z" fill="#52525B"/>
</svg>
