<svg width="24" height="25" viewBox="0 0 24 25" fill="none" xmlns="http://www.w3.org/2000/svg">
<path d="M1 4.5V10.5H7" stroke="#084DF2" stroke-width="2" stroke-linecap="round" stroke-linejoin="round"/>
<path d="M23 20.5V14.5H17" stroke="#084DF2" stroke-width="2" stroke-linecap="round" stroke-linejoin="round"/>
<path d="M20.49 9.49959C19.9828 8.06637 19.1209 6.78499 17.9845 5.77501C16.8482 4.76502 15.4745 4.05935 13.9917 3.72385C12.5089 3.38834 10.9652 3.43393 9.50481 3.85636C8.04437 4.27879 6.71475 5.0643 5.64 6.13959L1 10.4996M23 14.4996L18.36 18.8596C17.2853 19.9349 15.9556 20.7204 14.4952 21.1428C13.0348 21.5652 11.4911 21.6108 10.0083 21.2753C8.52547 20.9398 7.1518 20.2342 6.01547 19.2242C4.87913 18.2142 4.01717 16.9328 3.51 15.4996" stroke="#084DF2" stroke-width="2" stroke-linecap="round" stroke-linejoin="round"/>
</svg>
