<svg width="22" height="21" viewBox="0 0 22 21" fill="none" xmlns="http://www.w3.org/2000/svg">
<path fill-rule="evenodd" clip-rule="evenodd" d="M11.0002 6.75022C8.92916 6.75022 7.25022 8.42916 7.25022 10.5002C7.25022 12.5713 8.92916 14.2502 11.0002 14.2502C13.0713 14.2502 14.7502 12.5713 14.7502 10.5002C14.7502 8.42916 13.0713 6.75022 11.0002 6.75022ZM8.75022 10.5002C8.75022 9.25758 9.75758 8.25022 11.0002 8.25022C12.2429 8.25022 13.2502 9.25758 13.2502 10.5002C13.2502 11.7429 12.2429 12.7502 11.0002 12.7502C9.75758 12.7502 8.75022 11.7429 8.75022 10.5002Z" fill="#52525B"/>
<path fill-rule="evenodd" clip-rule="evenodd" d="M13.1133 1.38478C12.1214 -0.147793 9.87903 -0.14779 8.88712 1.38478L8.25437 2.36242C8.02496 2.71688 7.6004 2.89274 7.18753 2.80432L6.04882 2.56044C4.26374 2.17814 2.67814 3.76374 3.06044 5.54882L3.30432 6.68754C3.39274 7.1004 3.21688 7.52496 2.86242 7.75437L1.88478 8.38712C0.352207 9.37903 0.35221 11.6214 1.88478 12.6133L2.86242 13.2461C3.21688 13.4755 3.39274 13.9 3.30432 14.3129L3.06044 15.4516C2.67814 17.2367 4.26374 18.8223 6.04882 18.44L7.18754 18.1961C7.6004 18.1077 8.02496 18.2836 8.25437 18.638L8.88712 19.6157C9.87903 21.1482 12.1214 21.1482 13.1133 19.6157L13.7461 18.638C13.9755 18.2836 14.4 18.1077 14.8129 18.1961L15.9516 18.44C17.7367 18.8223 19.3223 17.2367 18.94 15.4516L18.6961 14.3129C18.6077 13.9 18.7836 13.4755 19.138 13.2461L20.1157 12.6133C21.6482 11.6214 21.6482 9.37903 20.1157 8.38712L19.138 7.75437C18.7836 7.52496 18.6077 7.1004 18.6961 6.68753L18.94 5.54882C19.3223 3.76374 17.7367 2.17814 15.9516 2.56044L14.8129 2.80432C14.4 2.89274 13.9755 2.71688 13.7461 2.36242L13.1133 1.38478ZM10.1464 2.1998C10.5472 1.58053 11.4533 1.58054 11.8541 2.1998L12.4868 3.17744C13.0546 4.05466 14.1053 4.48988 15.127 4.27106L16.2657 4.02718C16.987 3.8727 17.6277 4.5134 17.4733 5.2347L17.2294 6.37341C17.0106 7.39517 17.4458 8.44587 18.323 9.01363L19.3006 9.64638C19.9199 10.0472 19.9199 10.9533 19.3006 11.3541L18.323 11.9868C17.4458 12.5546 17.0106 13.6053 17.2294 14.627L17.4733 15.7657C17.6277 16.487 16.987 17.1277 16.2657 16.9733L15.127 16.7294C14.1053 16.5106 13.0546 16.9458 12.4868 17.823L11.8541 18.8006C11.4533 19.4199 10.5472 19.4199 10.1464 18.8006L9.51363 17.823C8.94588 16.9458 7.89517 16.5106 6.87341 16.7294L5.7347 16.9733C5.0134 17.1277 4.3727 16.487 4.52718 15.7657L4.77105 14.627C4.98988 13.6053 4.55467 12.5546 3.67744 11.9868L2.6998 11.3541C2.08053 10.9533 2.08054 10.0472 2.6998 9.64638L3.67744 9.01363C4.55466 8.44588 4.98988 7.39517 4.77106 6.37341L4.52718 5.2347C4.3727 4.5134 5.0134 3.8727 5.7347 4.02718L6.87341 4.27105C7.89517 4.48988 8.94587 4.05467 9.51363 3.17744L10.1464 2.1998Z" fill="#52525B"/>
</svg>
